# xmcd
#
# Track frame offsets:
#	150
#	15013
#	26742
#	43520
#	52186
#	65620
#	73691
#	98303
#	106808
#	117691
#	126230
#	139125
#	159647
#	172516
#	178142
#	204584
#	217219
#	225871
#	237208
#	244287
#	260031
#	274348
#	279032
#	291859
#	301325
#	322798
#	334339
#	343901
#
# Disc length: 4715
#
# Revision: 1
# Processed by: cddbd v1.5.1PL0 Copyright (c) Steve Scherf et al.
# Submitted via: MusicManager v6.0.0.0
# Normalized: r0:DSETVAR1
#
DISCID=9e12691c
DTITLE=Various Artist - Grand Ole Opry AFRS Discs
DYEAR=1900
DGENRE=country
TTITLE0=Red Foley - Intro/Chattanooga Shoeshine Boy
TTITLE1=Rod Brasfield - Comedy
TTITLE2=Hank Snow - Nobody's Child
TTITLE3=Wally Fowler and The Oak Ridge Quartet - Lead Me to That Rock
TTITLE4=Red Foley - Cleanse Me
TTITLE5=Claude Sharp and The Old Hickory Singers - Are You From Dixie
TTITLE6=Minnie Pearl - Comedy
TTITLE7=Hank Snow - I Wonder Where You Are Tonight
TTITLE8=Red Foley - Careless Kisses
TTITLE9=Red Foley - Intro/My Home in San Antone
TTITLE10=Wally Fowler and The Oak Ridge Quartet - Lead Me to That Rock
TTITLE11=Rod Brasfield - Comedy
TTITLE12=Dinning Sisters - Tennessee Waltz
TTITLE13=Possum Hunters - Instrumental
TTITLE14=George D. Hay/Uncle Dave Macon - 25th Anniversary/Chewing Gum
TTITLE15=Dinning Sisters - Oh Mona
TTITLE16=Minnie Pearl - Comedy
TTITLE17=Red Foley - Outro/Song
TTITLE18=Ernest Tubb - Intro/Walking the Floor Over You
TTITLE19=Rod Brasfield - Comedy
TTITLE20=Hank Snow - The Gold Rush is Over
TTITLE21=Tommy Jackson - 8th of January
TTITLE22=Ernest Tubb - What a Friend We Have in Jesus
TTITLE23=The Old Hickory Singers - I Don't Walk The Path No More
TTITLE24=Minnie Pearl - Comedy
TTITLE25=Hank Snow - Music Making Mama from Memphis
TTITLE26=Ernest Tubb - Somebody Stole My Honey
TTITLE27=Minnie Pearl - Outro/PSA
EXTD=
EXTT0=
EXTT1=
EXTT2=
EXTT3=
EXTT4=
EXTT5=
EXTT6=
EXTT7=
EXTT8=
EXTT9=
EXTT10=
EXTT11=
EXTT12=
EXTT13=
EXTT14=
EXTT15=
EXTT16=
EXTT17=
EXTT18=
EXTT19=
EXTT20=
EXTT21=
EXTT22=
EXTT23=
EXTT24=
EXTT25=
EXTT26=
EXTT27=
PLAYORDER=
